<?xml version="1.0" encoding="UTF-8"?>
<svg id="Ebene_2" data-name="Ebene 2" xmlns="http://www.w3.org/2000/svg" viewBox="0 0 613.08 372.47">
  <defs>
    <style>
      .cls-1 {
        fill: #2f3355;
      }
    </style>
  </defs>
  <g id="Ebene_1-2" data-name="Ebene 1">
    <path class="cls-1" d="M1.29,364.38c-1.91-.59-1.32-6.1-.65-7.82L114.99,28.89c2.43-8.8,2.95-18.01,3.14-27.13L119.56,0h94.79s1.15,1.24,1.15,1.24l127.91,359.54c-.3,2.46-4.67,2.64-6.79,2.83-21.85,1.91-46.41-1.51-68.55,0l-5.57-1.6-29.12-84.37-130.57.28-27.48,84.02c-.36.5-2.18,2.43-2.35,2.43H1.29ZM123.55,208.28h87.61l-44.21-144.95-43.4,144.95Z"/>
    <path class="cls-1" d="M588.66,353.62c-.88,4.07-10.24,7.07-13.93,8.37-35.07,12.4-89.13,13.96-124.83,3.74-136.23-39-116.14-275.44,33.99-282.54,94.25-4.46,140.11,66.33,126.98,154.85-.51,3.43-1.13,7-5.14,7.6-11.76,1.78-27.86,2.1-39.81,1.67-5.15-.18-11.54-1.54-16.66-1.66-37-.85-74.13.7-111.14.03.61,9.61,3.91,20.07,8.63,28.41,23.3,41.25,90.11,35.44,128.97,24.36,2.67-.76,9.39-3.98,11.1-4.08.68-.04,1.83.59,1.83,1.08v58.14ZM438.13,195.54c27.92-1.17,57.08,1.54,84.86.03,2.8-.15,7.65-.48,10.25-.9,6.86-1.08,6.52-3.58,6.02-9.88-2.6-33.14-39.7-49.33-68.76-37.73-19.49,7.78-31.36,27.85-32.37,48.47Z"/>
  </g>
</svg>