<?xml version="1.0" encoding="UTF-8"?>
<svg id="Ebene_2" data-name="Ebene 2" xmlns="http://www.w3.org/2000/svg" viewBox="0 0 242.23 196.09">
  <defs>
    <style>
      .cls-1 {
        fill: #2f3355;
      }
    </style>
  </defs>
  <g id="Ebene_1-2" data-name="Ebene 1">
    <g>
      <path class="cls-1" d="M147.81,42.91c-.3-1.23-1.61-2.15-2.53-2.97-4.82-4.3-29.9-22.61-31.03-25.96-4.02-11.89,12.4-17.25,20.9-11.91,42.68,39.05,131.94,72.79,100.52,146.2-20.23,47.26-84.15,61-126.16,34.45-21.1-13.34-38.2-39.15-34.71-64.8l-51.95,41.54c-20.92,10.03-31.22-12.63-14.56-25.56l86.53-66.97h-50.5c-5.49,0-10.28-6.86-9.46-12.43.65-4.39,9.49-11.57,13.46-11.57h99.5ZM148.59,67.19c-36.65,4.38-56.97,49.16-29.83,77.27,34.25,35.46,103.4,6.79,88.76-43.76-7.38-25.47-34.13-36.47-58.93-33.51Z"/>
      <path class="cls-1" d="M151.55,82.15c39.84-6.27,53.76,44.61,18.49,56.49-45.54,15.33-62.35-49.59-18.49-56.49Z"/>
    </g>
  </g>
</svg>