<?xml version="1.0" encoding="UTF-8"?>
<svg id="Ebene_2" data-name="Ebene 2" xmlns="http://www.w3.org/2000/svg" viewBox="0 0 192.77 289.41">
  <defs>
    <style>
      .cls-1 {
        fill: #2f3355;
      }
    </style>
  </defs>
  <g id="Ebene_1-2" data-name="Ebene 1">
    <path class="cls-1" d="M96.5,97.05c.39,10.12-.54,20.4,0,30.51.06,1.19-.74,4.37,1.49,3.5,3.89-16.37,20.41-30.47,36.51-34.01,4.66-1.03,12.34-1.69,17-1,11.96,1.77,28.09,12.76,34.02,23.48,31.71,57.32-48.87,103.98-83.19,50.19l-5.83-12.67v91.5c0,13.22-16.53,31.68-28.32,36.68-36.84,15.62-74.66-14.74-67.23-54.23,3.71-19.72,20.44-34.33,39.57-38.44C-2.61,185.42-15.06,127.83,22.17,104.23c5.52-3.5,12.01-4.73,17.32-8.18,16.8,1.57,39.56.67,57,1Z"/>
    <path class="cls-1" d="M39.5,96.05C-11.99,91.24-13.02,6.06,41.95,1.01c35.34,2.57,75.23-3.3,110.03.05,8.36.8,18.25,5.92,24.52,11.48,30.27,26.87,15.24,78.85-25.01,83.51-4.66-.69-12.34-.03-17,1-12.64-.18-25.41.24-38,0-17.44-.33-40.2.57-57-1Z"/>
  </g>
</svg>