<?xml version="1.0" encoding="UTF-8"?>
<svg id="Ebene_2" data-name="Ebene 2" xmlns="http://www.w3.org/2000/svg" viewBox="0 0 225.99 216.29">
  <defs>
    <style>
      .cls-1 {
        fill: #1d1d1b;
      }
    </style>
  </defs>
  <g id="Ebene_1-2" data-name="Ebene 1">
    <path class="cls-1" d="M135.7,128.69c8.4,28.55,17.07,57.04,25.26,85.65l-.68,1.46-35.23-.35-16.09-58.72h-60.92s-15.74,58.35-15.74,58.35c-.16.2-1.17.9-1.3.9H0l.09-4.5c4.66-14.18,7.96-28.91,12.01-43.18.02-.06.8-.43.72-.91C24.95,119.63,57.1,5.54,57.1,5.54l41.92.11s24.66,82.21,36.67,123.05ZM100.86,125.76l-23.1-89.85c-7.06,29.86-14.34,60.01-22.01,89.85h45.11Z"/>
    <path class="cls-1" d="M189.79,60.85h33.01c.46,0,1.03,2.23.93,2.74l-.09,150.67c-.45,1.41-.91,1.61-2.28,1.75-9.34.93-20.22-.74-29.73-.01-.8.18-2.38-.98-2.38-1.66V61.4c0-.1.43-.36.55-.55Z"/>
    <path class="cls-1" d="M191.81,34.07c-4.5-4.84-5.75-14.27-4.14-20.46.83-3.18,3.94-8.58,6.7-10.35,1.14-.73,4.77-2.13,6.16-2.46,30.47-7.36,35.04,38.15,5.77,38.43-4.05.04-11.67-2.13-14.49-5.16Z"/>
  </g>
</svg>