<?xml version="1.0" encoding="UTF-8"?>
<svg id="Ebene_2" data-name="Ebene 2" xmlns="http://www.w3.org/2000/svg" viewBox="0 0 100.86 96.4">
  <defs>
    <style>
      .cls-1 {
        fill: #2f3355;
      }
    </style>
  </defs>
  <g id="Ebene_1-2" data-name="Ebene 1">
    <g>
      <path class="cls-1" d="M71.53,96.31l-15.72-.16-7.18-26.21h-27.19s-7.55,26.44-7.6,26.44H0L25.48,2.47l18.71.05,27.33,93.79ZM45.01,56.12l-10.31-40.1c-3.15,13.33-6.4,26.78-9.82,40.1h20.13Z"/>
      <path class="cls-1" d="M85.6,15.21c-2.01-2.16-2.57-6.37-1.85-9.13.37-1.42,1.76-3.83,2.99-4.62.51-.33,2.13-.95,2.75-1.1,13.6-3.29,15.64,17.03,2.57,17.15-1.81.02-5.21-.95-6.47-2.3Z"/>
      <rect class="cls-1" x="84.7" y="27.15" width="14.09" height="69.24"/>
    </g>
  </g>
</svg>