<?xml version="1.0" encoding="UTF-8"?>
<svg id="Ebene_2" data-name="Ebene 2" xmlns="http://www.w3.org/2000/svg" viewBox="0 0 153.23 153.39">
  <defs>
    <style>
      .cls-1 {
        fill: #2f3355;
      }
    </style>
  </defs>
  <g id="Ebene_1-2" data-name="Ebene 1">
    <g>
      <path class="cls-1" d="M81.48,41.39c3.39-.2,10.12,5.58,12.87,7.82,3.97,3.23,12.51,10.62,15.06,14.72,1.33,2.15,1.13,4.45,1.03,6.92-.27,6.29-3.33,23.39-6.04,28.85-1.79,3.61-10.49,6.58-14.33,8-4.51,1.67-16.5,5.86-20.79,5.21-2.88-.44-13-9-15.62-11.36-2.16-1.96-10.19-9.62-11.09-11.71-1.52-3.55.28-13.31,1-17.46.66-3.74,3.46-17.17,5.67-19.46,1.74-1.8,10.25-5.03,13.02-6.05,4.69-1.73,14.54-5.19,19.23-5.47Z"/>
      <path class="cls-1" d="M47.29,147.22c-2.47-2.39-5.36-16.26-6.06-20.23-.9-5.12-1.85-11.43-2.03-16.58-.05-1.32-.38-6.4.77-6.74,1.77-.52,6.57,5.42,8.09,6.73,15.31,13.29,33.33,23.14,52.95,28.48,3.51.96,8.9,1.46,11.87,2.55,1.26.46,1.06,1.86.04,2.65-1.11.86-5.32,2.73-6.85,3.39-16.15,6.97-36.05,7.86-52.78,2.37-1.57-.51-4.9-1.54-6-2.61Z"/>
      <path class="cls-1" d="M115.4,11.09c.81-.2,3.63,1.8,4.47,2.37,14.79,9.81,26.57,26.86,30.8,44.11.84,3.41,2.38,8.1.44,11.15-3.65,5.75-16.12,15.8-21.93,19.94-1.64,1.17-8.78,6.16-10.15,6.18-.87.01-1.59-.19-1.61-1.17-.03-1.61,1.74-6.45,2.16-8.56,4.38-22.05,3.56-42.2-2.41-63.83-.54-1.94-2.91-7.36-2.93-8.7,0-.64.6-1.35,1.17-1.49Z"/>
      <path class="cls-1" d="M74.49.01c8.25-.18,20.96,1.29,28.47,4.76,4.52,2.09,4.67,5.1,5.92,9.43,2.45,8.45,4.49,19.45,4.8,28.23.04,1.26.25,6.53-.45,7.03l-1.89-.04C92.13,29.36,66.65,16.77,39.43,11.54c-.3-.43-.31-1.11-.15-1.6.28-.85,7.86-4.17,9.26-4.71C56.59,2.11,65.84.2,74.49.01Z"/>
      <path class="cls-1" d="M151.22,77.17c.54-.14.95,0,1.34.37l.67,1.24c-.83,20.66-10.37,42.2-26.28,55.59-1.9,1.6-3.63,3.17-6.31,3.03-3.28-.17-9-2.03-12.32-3.04-9.18-2.77-18.31-6.71-26.53-11.64l-.17-1.09.91-.98c23.11-6.04,44.67-18.34,61.4-35.38,1.11-1.13,6.6-7.93,7.29-8.1Z"/>
      <path class="cls-1" d="M30.26,16.27c4.03-.83,15.93,3.12,20.25,4.66,5.28,1.88,12.3,4.76,17.11,7.55,1.22.71,3.88,1.73,3.66,3.19-.36,1.38-8.97,3.33-10.9,4.02-22.63,8.06-42.41,21.46-57.9,39.81C-.61,78.11.01,71.88.12,69.88c.83-15.44,8.94-32.71,19.11-44.17,1.95-2.19,8.51-8.92,11.03-9.44Z"/>
      <path class="cls-1" d="M33.52,58.59c.97-.16,1.94-.16,1.96,1.04-1.16,4.51-2.34,9.07-3.1,13.67-3.27,19.81-1.98,39.42,3.36,58.72.54,1.95,2.91,7.34,2.93,8.7,0,.35-.05.62-.32.86l-1.2.67c-16.36-8.97-29.14-26.08-34.17-44-1.17-4.17-3.25-10.42-.69-14.11,3.8-5.49,15.34-15,20.98-19.03,1.65-1.18,8.9-6.29,10.26-6.52Z"/>
    </g>
  </g>
</svg>