<?xml version="1.0" encoding="UTF-8"?>
<svg id="Ebene_2" data-name="Ebene 2" xmlns="http://www.w3.org/2000/svg" viewBox="0 0 173.23 129.86">
  <defs>
    <style>
      .cls-1 {
        fill: #2f3355;
      }
    </style>
  </defs>
  <g id="Ebene_1-2" data-name="Ebene 1">
    <g>
      <path class="cls-1" d="M26.32,87.2v38.4c0,1.43-2.1,1.64-3.16,1.73-4.77.41-16.54.61-21.08,0-1-.13-1.71-.28-2.08-1.34L.12,1.57l3.92-.97c21.12.82,44.47-4.18,64.18,5.31,32.45,15.64,29.53,65.42-4.75,77.6-11.89,4.22-24.68,3.78-37.16,3.69ZM26.32,64.21c14.67,1.48,37.09.31,38.18-18.81.69-12.14-6.04-19.01-17.61-21.08-7.04-1.26-13.51-.08-20.57-.22v40.11Z"/>
      <path class="cls-1" d="M168.17,56.87c-1.01,1.53-6.14-1.52-7.56-1.98-7.05-2.29-15.6-4.01-23.03-3.42-9.48.75-12.43,7.53-3.81,12.65,13.54,8.04,37.12,10.55,39.23,30.72,2.81,26.94-21.46,36.15-44.2,34.91-3.19-.17-25.2-3.38-25.2-6.6v-23.24c2.5.23,4.69,2.06,7.01,3.02,7.72,3.19,18.13,5.51,26.49,4.8,5.01-.42,12.96-3.05,8.97-9.45-2.74-4.4-21.43-10.41-27.46-14.12-28.25-17.38-14.26-52.04,17.03-54.2,10.26-.71,23.31-.03,32.52,4.64-.57,2.98.75,21.12,0,22.26Z"/>
    </g>
  </g>
</svg>