<?xml version="1.0" encoding="UTF-8"?>
<svg id="Ebene_2" data-name="Ebene 2" xmlns="http://www.w3.org/2000/svg" viewBox="0 0 138.5 138.5">
  <defs>
    <style>
      .cls-1 {
        fill: #2f3355;
      }
    </style>
  </defs>
  <g id="Ebene_1-2" data-name="Ebene 1">
    <g>
      <path class="cls-1" d="M14.27.12l109.05-.12c9.2.63,14.55,5.99,15.18,15.18v107.8c-.58,9.36-5.71,14.87-15.18,15.52H15.52c-9.36-.58-14.87-5.71-15.52-15.18L.02,14.85C.66,6.32,5.7.92,14.27.12ZM46.4,71.64c6.96-1.81,14.54-4.25,20.64-8.18,10.12-6.51,11.89-12.41,5.8-23.21-1.99-3.53-10.76-14.43-14.5-15.2-3.11-.64-2.21,5.51-2.39,7.19-1.32,12.15-6.25,25.66-15.79,33.54-1.42-.47-5.19-2.93-4.97-4.47,7.29-9.73,13.38-21.59,12.23-34.18-.84-9.16-6.6-8.58-13.78-6.97-2.04.45-11.49,2.87-12.61,3.76-1.96,1.55,1.29,4.26,2.12,5.65,4.84,8.07,2.43,18.39.74,27.05-9.05-4.11-20.82-5.4-21.5,7.66-.53,10.16,5.28,5.6,11.14,5,14.3-1.45,25.32,9.76,32.81,20.31.94,1.32,5.72,10.44,6.51,4.34,1.12-8.67-3.08-14.86-6.45-22.3ZM57.82,78.12c2.21.31,5.04-.23,7.33,0-1.01,1.49-3.53,2.95-2.55,5.11.33.72,7.65,5.87,8.59,6.07,1.95.41,3.81-.13,3.5-2.45-.13-.99-1.13-1.36-.09-1.83,1.27-.58,7.56-2.31,8.85-2.33.8-.02,2.73.43,3.43.82.39.22.58-.01.43.76-3.83-.03-8.22.6-10.51,3.98-2,2.94-2.56,9.19-7.34,8.96-2.1-.1-8.11-2.92-9.38-4.63-2.47-3.34,2.46-11.55-3.8-13.76-.06,1.3.08,2.62,0,3.92-.24,3.53-1.48,9.18.4,12.22,1.71,2.76,15.35,10.19,19.15,12.91,2.15,1.54,4.35,3.18,6.38,4.88s6.78,7.17,9.03,7.03c3.2-.2,1.6-3.56.34-5.15-.79-1-5.88-5.06-4.95-6.13l2.72,1.7c-.85-3.9,1.65-7.38,5.71-5.53,2.77,1.26,2.52,5.4,2.47,7.92-.68-.41-.71-1.16-1.58-1.66-3.95-2.28-6.05,1.19-2,4.05s7.27-2.39,8.65-5.68c.93-2.22,1.13-4.55,1.93-6.59.75-1.92,4.01-4.78,5.62-6.32,7.12-6.85,25.4-20.49,26.24-30.39.09-1.05.17-1.92-1.14-1.83-1.39.09-10.66,7.99-12.71,9.49-4.95,3.61-15.2,11.19-21.09,11.65s-5.05-2.06-2.35-5.76c1.21-1.67,6.32-6.01,4.39-8.2s-5.87,1.64-7.76,2.44c-6.6,2.79-10.59-1.56-13.01-7.24-.75-1.76-1.79-6.44-2.76-7.47-2.54-2.73-7.08,2.47-9.05,3.88-4.98,3.56-10.11,5.7-15.63,8.24-2.2,2.8-1.16,6.45,2.53,6.97Z"/>
      <path class="cls-1" d="M71.25,85.92c-.81.51-4.2-1.89-4.73-2.52-.37-.44-.58-1.02-.2-1.56,1.16-1.62,6.79,2.9,4.93,4.07Z"/>
    </g>
  </g>
</svg>