<?xml version="1.0" encoding="UTF-8"?>
<svg id="Ebene_2" data-name="Ebene 2" xmlns="http://www.w3.org/2000/svg" viewBox="0 0 391.16 264.12">
  <defs>
    <style>
      .cls-1 {
        fill: #2f3355;
      }
    </style>
  </defs>
  <g id="Ebene_1-2" data-name="Ebene 1">
    <path class="cls-1" d="M0,259.05V3.55c0-.44,2.2-1.81,2.95-2.05,64.35-.25,141.72-13.08,189.08,41.02,34.18,39.05,37.07,105.29,13.15,150.2-21.4,40.18-67.73,64.94-112.62,67.38-24.89,1.35-62.55,1.93-87.1,0-1.93-.15-3.62-.59-5.45-1.05ZM55,49.05v163c27.84,2.84,56.43,1.36,79.48-16.02,33.55-25.3,39.12-88.93,13.04-121-21.97-27.01-60.15-29-92.52-25.98Z"/>
    <path class="cls-1" d="M250,203.05c1.64-1.61,11.73,5.1,14.32,6.18,14.54,6.09,35.41,10.76,51.17,9.81,23.45-1.42,31.65-16.51,8.5-28.48-29.37-15.19-68.78-20.43-74.85-61.15-9.6-64.38,65.16-76.99,112.92-66.91,2.62.55,15.58,4.44,16.68,5.81,1.76,2.18,2.11,45.33.17,46.65-4.95.11-9.58-3.39-14.39-4.93-14.06-4.5-45.39-10.82-58.22-3.19-18.75,11.15,6.37,24.01,16.03,28.38,29.98,13.56,66.56,22,68.72,62.28,3.54,65.99-77.4,75.4-125.49,60.49-2.45-.76-15.56-5.54-15.56-7.44v-47.5Z"/>
  </g>
</svg>