<?xml version="1.0" encoding="UTF-8"?>
<svg id="Ebene_2" data-name="Ebene 2" xmlns="http://www.w3.org/2000/svg" viewBox="0 0 904.85 927.35">
  <defs>
    <style>
      .cls-1 {
        fill: #2f3355;
      }
    </style>
  </defs>
  <g id="Ebene_1-2" data-name="Ebene 1">
    <path class="cls-1" d="M806.07,0l98.78,363.45v7.54l-55.8,93.12,55.8,93.12v7.54l-99.74,362.57-367.73-98.31-55.58-95.99c-37.08-.94-74.09.93-111.09.24L3.03,466.36l-3.03-1.87v-.75l3.03-1.87L270.72,194.93c37.08-1.53,74,1.24,111.09.24l53.41-93.63,2.68-2.59c121.15-32.49,242.33-64.91,363.53-97.23,1.31-.35,2.84.47,2.39-1.72h2.26ZM187,418.49h323.86l1.76-2.01,159.56-275.52.03-2.23-281.57,72.08-203.64,207.69ZM753.28,184.74l-162.73,279.24,161.61,279.51c1.76.34.89-.82,1.2-1.78,1.58-4.79,2.84-9.8,4.23-14.65,24.95-87.5,48.67-175.37,73.35-262.95l-77.67-279.37ZM511.99,509.73H187c68.11,69.3,135.91,138.84,204.4,207.69l281.57,72.07-7.03-13.33c-51.02-87.54-101.6-175.34-152.58-262.9-.64-1.1-1.26-2.23-1.37-3.53Z"/>
  </g>
</svg>