<?xml version="1.0" encoding="UTF-8"?>
<svg id="Ebene_2" data-name="Ebene 2" xmlns="http://www.w3.org/2000/svg" viewBox="0 0 192.1 192.68">
  <defs>
    <style>
      .cls-1 {
        fill: #2f3355;
      }
    </style>
  </defs>
  <g id="Ebene_1-2" data-name="Ebene 1">
    <path class="cls-1" d="M28.59,165.28C-17.48,119.78-6.39,41.04,51.21,11.11c79.09-41.09,167.24,39.12,133.49,121.49-25.68,62.67-107.3,80.9-156.11,32.69ZM32.66,42.05c-51.05,61.84,4.49,152.6,82.59,135.09,58.56-13.13,83.15-83.42,47.4-131.42C131.1,3.34,66.38,1.2,32.66,42.05Z"/>
    <path class="cls-1" d="M87.24,39.64c-4.56,5.21-9.97,9.77-9.99,17.49-.01,4.97,2.4,10.85,7.98,7.5l.07,58.44c3.28,11.28,15.84,5.52,21.96-.15l-.08-50.73-5.93-10.56,10.52,2.74c9.95-9.58,22.61-17.8,36.47-19.74,1.05.9-14.92,18.73-15.79,22.7-2.12,9.7-.31,19.41-.17,28.75.11,7.27-1.22,19.62-.01,26.01,1.96,10.41,21.45-4.03,24.48-8.47l.48,1.48c-4.34,6.64-8.23,13.51-13.47,19.53-3.02,3.46-15.68,15.71-19.43,16.54-2.56.57-10.93-8.7-13.58-10.53l-13.73,14.76c-16-1.95-35.79-7.43-44.77-21.76,4.52.02,8.32,1.13,9.05-4.46,1.07-8.32,1.1-36.81,0-45.09-1.75-13.2-20.69,4.1-24.02,9.08l-13.02,19.47c-1.46-14.76,6.18-29.09,15.48-40.01,11.79-13.84,29.35-29.12,47.51-32.98Z"/>
  </g>
</svg>