<?xml version="1.0" encoding="UTF-8"?>
<svg id="Ebene_2" data-name="Ebene 2" xmlns="http://www.w3.org/2000/svg" viewBox="0 0 421.1 286.74">
  <defs>
    <style>
      .cls-1 {
        fill: #2f3355;
      }
    </style>
  </defs>
  <g id="Ebene_1-2" data-name="Ebene 1">
    <g>
      <path class="cls-1" d="M419.95,0l1.14,270c-1.23,1.68-6.19,3.25-8.37,4.09-40.4,15.78-101.28,19.91-138.24-5.96-43.54-30.48-49.54-98.64-20.79-141.16,24.68-36.51,68.46-50.73,111.29-45.95V1.42c0-.1,1.32-1.42,1.42-1.42h53.55ZM364.99,237.41v-109.07c0-.89-7.96-1.92-9.33-2.01-46.1-3.07-72.56,34.45-59.76,77.89,8.88,30.14,34.54,36.8,63.12,34.32,2.01-.17,3.94-1.01,5.96-1.12Z"/>
      <path class="cls-1" d="M.09,282.18c-.21-.22-.01-3.16.44-3.81l76.31-124.85c.55-1.03.41-2.21-.14-3.21L2.09,24.34c-.82-1.65-.21-2.92,1.65-2.83,18.8,1.35,39.89-1.7,58.42,0,2.79.26,3.71.99,5.1,3.4,5.05,8.74,9.27,19.76,14.12,28.94,11.57,21.88,25.31,42.64,35.72,65.15l51.29-96.59c.9-.82,1.95-.79,3.07-.9,16.93-1.54,36.14,1.23,53.32,0,1.47-.13,2.7,1.23,2.1,2.69l-74.83,123.9,78.75,129.18c.94.79,1.55,4.35.18,4.35h-62.33c-2.92,0-4.71-2.56-6.05-4.72-8.25-13.34-15.42-30.76-23.04-44.96-7.68-14.31-16.73-32.64-25.48-45.91-.39-.6-.59-1.45-1.52-1.31-16.44,32.05-33.6,63.75-50.79,95.41-.39.73-3.14,2.06-3.61,2.06H.09Z"/>
    </g>
  </g>
</svg>